<svg xmlns="http://www.w3.org/2000/svg" width="391.604" height="306.874" viewBox="0 0 391.604 306.874"><defs><style>.a{fill:#56b4fc;}</style></defs><g transform="translate(-524.074 -5469.793)"><g transform="translate(524.074 5709.63)"><g transform="translate(0 47.471)"><path class="a" d="M1171.538,674.323h3.168c1.992,0,3.423.052,4.572.894a4.655,4.655,0,0,1,1.865,3.857,3.727,3.727,0,0,1-2.861,3.832,4.122,4.122,0,0,1,3.755,4.317,5.057,5.057,0,0,1-1.89,4.265c-1.38,1.073-3.091,1.1-5.415,1.1h-3.193Zm3.73,8.123c2.733,0,4.163-.664,4.163-3.244,0-2.733-1.277-3.423-4.163-3.423H1173.2v6.667Zm.051,8.71h.332a5.286,5.286,0,0,0,3.32-.664,3.775,3.775,0,0,0,1.277-2.937,3.519,3.519,0,0,0-1.456-3.167,5.287,5.287,0,0,0-2.836-.511H1173.2v7.279Z" transform="translate(-1171.538 -673.557)"/><path class="a" d="M1229.413,674.323h1.66v16.705h6.258v1.558h-7.918Z" transform="translate(-1185.999 -673.557)"/><path class="a" d="M1294.5,690.127a9.821,9.821,0,0,1-6.922,2.809,9.674,9.674,0,0,1-6.9-2.809,9.5,9.5,0,0,1,0-13.589,10.033,10.033,0,0,1,13.819,0,9.5,9.5,0,0,1,0,13.589Zm1.1-6.769a8.008,8.008,0,1,0-8.021,8.1A8.04,8.04,0,0,0,1295.6,683.357Z" transform="translate(-1198.095 -673.421)"/><path class="a" d="M1346.39,675.235c-4.776,0-7.969,3.371-7.969,8.1,0,4.879,3.346,8.071,7.74,8.071a9.4,9.4,0,0,0,5.9-2.12l-.025,1.941a11.14,11.14,0,0,1-5.8,1.711,9.578,9.578,0,1,1,0-19.157,9.387,9.387,0,0,1,5.952,1.916l-.051,1.839A8.495,8.495,0,0,0,1346.39,675.235Z" transform="translate(-1212.79 -673.421)"/><path class="a" d="M1394.831,674.323h1.66v8.557l8.251-8.557h2.171l-8.659,8.736,9.068,9.527h-2.4l-8.429-9.272v9.272h-1.66Z" transform="translate(-1227.332 -673.557)"/><path class="a" d="M1458.7,675.235c-4.776,0-7.969,3.371-7.969,8.1,0,4.879,3.346,8.071,7.74,8.071a9.4,9.4,0,0,0,5.9-2.12l-.025,1.941a11.141,11.141,0,0,1-5.8,1.711,9.578,9.578,0,1,1,0-19.157,9.388,9.388,0,0,1,5.952,1.916l-.051,1.839A8.5,8.5,0,0,0,1458.7,675.235Z" transform="translate(-1240.853 -673.421)"/><path class="a" d="M1506.63,674.323h1.661v7.408h9.936v-7.408h1.66v18.263h-1.66v-9.425h-9.936v9.425h-1.661Z" transform="translate(-1255.267 -673.557)"/><path class="a" d="M1626.67,674.323h1.66v18.263h-1.66Z" transform="translate(-1285.262 -673.557)"/><path class="a" d="M1674.278,673.3l12.925,15.275V674.068h1.559v18.8l-12.926-15.3v14.763h-1.558Z" transform="translate(-1297.157 -673.302)"/><path class="a" d="M1575.046,692.348h1.814l-7.689-18.978-8.02,18.978h1.685l.756-1.926h10.729Zm-10.9-3.338,1.116-2.843h0l.569-1.43h-.011l.369-.9h0l2.875-7.04,3.116,7.944h-.007l.884,2.295h-.016l.744,1.979Z" transform="translate(-1268.891 -673.319)"/></g><g transform="translate(0 0)"><path class="a" d="M1238.323,640.772a7.5,7.5,0,0,0,7.525,5.721c4.639,0,7.422-2.835,7.422-7.783,0-4.535-2.68-6.236-7.01-8.5-5.824-3.041-9.226-5.411-9.226-10.566,0-5.206,3.865-8.865,9.535-8.865a8.683,8.683,0,0,1,8.144,4.691l-2.578,1.546a6,6,0,0,0-5.772-3.247,5.521,5.521,0,0,0-5.927,5.928c0,4.484,3.35,5.515,8.143,8.143,5.412,2.938,7.886,5.309,7.886,10.875,0,6.6-4.123,10.773-10.773,10.773-4.845,0-8.3-2.422-10.256-7.164Z" transform="translate(-1187.504 -610.207)"/><path class="a" d="M1298.7,615.086h-10.154v-3.144h23.658v3.144h-10.154V648.8h-3.35Z" transform="translate(-1200.775 -610.499)"/><path class="a" d="M1365.729,648.8l-12.937-17.576h-2.01V648.8h-3.35V611.942h6.752c7.989,0,11.958,3.3,11.958,10.051,0,5.772-3.659,9.226-9.587,9.226L1369.8,648.8Zm-14.948-20.308h3.35c5.721,0,8.4-1.34,8.4-6.6,0-5.309-2.525-7.009-8.4-7.009h-3.35Z" transform="translate(-1215.488 -610.499)"/><path class="a" d="M1464.578,611.942h3.351v17.266l16.648-17.266h4.381l-17.473,17.627,18.3,19.226h-4.845l-17.008-18.71V648.8h-3.351Z" transform="translate(-1244.76 -610.499)"/><path class="a" d="M1552.722,643.83a19.814,19.814,0,0,1-13.968,5.669,19.518,19.518,0,0,1-13.917-5.669,19.168,19.168,0,0,1,0-27.42,20.243,20.243,0,0,1,27.885,0,19.166,19.166,0,0,1,0,27.42Zm2.217-13.659a16.16,16.16,0,1,0-16.185,16.339A16.224,16.224,0,0,0,1554.938,630.171Z" transform="translate(-1258.375 -610.224)"/><path class="a" d="M1601.447,611.942h5.721c6.339,0,11.236,0,15.153,2.423,4.793,2.938,7.576,8.659,7.576,16.03,0,6.7-2.268,11.958-6.236,15-4.226,3.247-9.02,3.4-14.947,3.4h-7.267Zm6.339,33.967h1.959c4.639,0,8.247-.1,11.03-2.113,3.505-2.526,5.567-7.216,5.567-13.453,0-5.051-1.34-9.071-3.763-11.751-3.4-3.763-7.628-3.866-13.813-3.866H1604.8v31.184Z" transform="translate(-1278.959 -610.499)"/><path class="a" d="M1199.577,648.314h3.66l-15.514-38.3-16.185,38.3h3.4l1.526-3.887h21.65Zm-21.992-6.736,2.252-5.737h.008l1.146-2.886h-.02l.744-1.824h0l5.8-14.206,6.288,16.03h-.014l1.783,4.63h-.032l1.5,3.994Z" transform="translate(-1171.538 -610.018)"/><path class="a" d="M1424.94,648.314h3.66l-15.515-38.3-16.184,38.3h3.4l1.526-3.887h21.65Zm-21.993-6.736,2.253-5.737h.007l1.147-2.886h-.021l.745-1.824h0l5.8-14.206,6.288,16.03h-.013l1.783,4.63h-.032l1.5,3.994Z" transform="translate(-1227.849 -610.018)"/><path class="a" d="M1672.612,629.776v-14.69h14.9v-3.144h-18.246v36.853h18.246v-3.144h-14.9v-5.157h12.293v-3.13h-12.293v-7.588Z" transform="translate(-1295.904 -610.499)"/></g></g><g transform="translate(613.369 5469.793)"><path class="a" d="M1491.851,400.724h-36.381v-27.1a11.666,11.666,0,0,0,5.132-3l20.742-20.741a11.755,11.755,0,0,0,0-16.6L1460.6,312.539a11.753,11.753,0,0,0-16.6,0l-20.742,20.741a11.667,11.667,0,0,0-3,5.132h-27.1V302.032a11.754,11.754,0,0,0-11.74-11.741h-79.1a11.754,11.754,0,0,0-11.74,11.741v79.1a11.754,11.754,0,0,0,11.74,11.741H1338.7v27.1a11.671,11.671,0,0,0-5.132,3l-20.742,20.742a11.754,11.754,0,0,0,0,16.6l20.742,20.742a11.741,11.741,0,0,0,16.6,0l20.742-20.742a11.674,11.674,0,0,0,3-5.132h27.094v36.381a11.754,11.754,0,0,0,11.74,11.74h79.1a11.753,11.753,0,0,0,11.74-11.74v-79.1A11.754,11.754,0,0,0,1491.851,400.724Zm-64.111-62.961,20.741-20.741a5.4,5.4,0,0,1,7.639,0l20.742,20.741a5.4,5.4,0,0,1,0,7.639l-20.742,20.741a5.407,5.407,0,0,1-7.639,0L1427.74,345.4a5.4,5.4,0,0,1,0-7.639Zm-125.422,48.77a5.407,5.407,0,0,1-5.4-5.4v-79.1a5.407,5.407,0,0,1,5.4-5.4h79.1a5.407,5.407,0,0,1,5.4,5.4v79.1a5.407,5.407,0,0,1-5.4,5.4Zm64.111,69.3-20.742,20.742a5.4,5.4,0,0,1-7.638,0l-20.742-20.742a5.407,5.407,0,0,1,0-7.638l20.742-20.742a5.4,5.4,0,0,1,7.638,0l20.742,20.742a5.4,5.4,0,0,1,0,7.638Zm34.581-43.37v36.381h-27.094a11.672,11.672,0,0,0-3-5.132l-20.742-20.742a11.664,11.664,0,0,0-5.132-3v-27.1h36.381a11.754,11.754,0,0,0,11.74-11.741V344.752h27.1a11.667,11.667,0,0,0,3,5.132L1444,370.625a11.657,11.657,0,0,0,5.132,3v27.1h-36.38A11.754,11.754,0,0,0,1401.01,412.464Zm96.242,79.1a5.407,5.407,0,0,1-5.4,5.4h-79.1a5.407,5.407,0,0,1-5.4-5.4v-79.1a5.407,5.407,0,0,1,5.4-5.4h79.1a5.407,5.407,0,0,1,5.4,5.4Z" transform="translate(-1290.577 -290.291)"/><path class="a" d="M1359.388,355.97a33.734,33.734,0,0,1,22.158-8.264,33.734,33.734,0,0,1-22.158-8.264,24.792,24.792,0,0,1,5.884-9.338,24.8,24.8,0,0,1-9.337,5.884,33.731,33.731,0,0,1-8.264-22.158,33.732,33.732,0,0,1-8.264,22.158,24.783,24.783,0,0,1-9.338-5.884,24.8,24.8,0,0,1,5.885,9.338,33.735,33.735,0,0,1-22.159,8.264,33.735,33.735,0,0,1,22.159,8.264,24.8,24.8,0,0,1-5.885,9.337,24.793,24.793,0,0,1,9.338-5.884,33.735,33.735,0,0,1,8.264,22.158,33.734,33.734,0,0,1,8.264-22.158,24.8,24.8,0,0,1,9.337,5.884A24.8,24.8,0,0,1,1359.388,355.97Z" transform="translate(-1296.378 -296.173)"/><g transform="translate(135.581 135.586)"><path class="a" d="M1516.838,502.962c3.007-3,6-6.014,9.021-9.01a12.609,12.609,0,0,0,2.544-3.316,16.97,16.97,0,0,0,.992-2.247,12.738,12.738,0,0,0,.639-4.362,13.6,13.6,0,0,0-1.465-5.738,14.352,14.352,0,0,0-2.291-3.238,11.812,11.812,0,0,0-2.644-2.071,13.131,13.131,0,0,0-2.8-1.289,12.9,12.9,0,0,0-9.187.419,13.571,13.571,0,0,0-4.142,2.709c-1.63,1.565-3.205,3.172-4.781,4.781a3.262,3.262,0,0,0-.958,2.335,3.2,3.2,0,0,0,1.85,3.019,3.055,3.055,0,0,0,1.575.341,3.551,3.551,0,0,0,2.391-1.145c1.376-1.422,2.787-2.809,4.186-4.2.308-.32.661-.595.991-.881a5.935,5.935,0,0,1,3.128-1.322,6.609,6.609,0,0,1,6.918,3.8,6.367,6.367,0,0,1,.539,3.745,6.672,6.672,0,0,1-1.982,3.833c-2.985,2.974-5.97,5.97-8.956,8.944a11.341,11.341,0,0,1-.948.827,6.292,6.292,0,0,1-4.571,1.376,6.466,6.466,0,0,1-3.987-1.74,3.859,3.859,0,0,0-1.7-1.025,3.22,3.22,0,0,0-2.765.529,3.181,3.181,0,0,0-1.245,1.774,3.125,3.125,0,0,0,.353,2.577,6.014,6.014,0,0,0,1.3,1.4,13.781,13.781,0,0,0,3.624,2.181,13.394,13.394,0,0,0,3.689.9,12.278,12.278,0,0,0,4.253-.287,10.46,10.46,0,0,0,2.952-1.091,21.307,21.307,0,0,0,1.938-1.157A13.889,13.889,0,0,0,1516.838,502.962Z" transform="translate(-1477.754 -471.041)"/><path class="a" d="M1488.969,501.724a6.971,6.971,0,0,1,3.823-2.093,6.787,6.787,0,0,1,2.974.165,6.653,6.653,0,0,1,2.9,1.719,2.959,2.959,0,0,0,.87.606,3.315,3.315,0,0,0,4.031-5.034,9.669,9.669,0,0,0-2.28-1.95,13.347,13.347,0,0,0-4.516-1.928,12.9,12.9,0,0,0-4.858-.165,12.549,12.549,0,0,0-3.988,1.311,13.924,13.924,0,0,0-3.359,2.4c-2.809,2.787-5.6,5.6-8.394,8.382a18.917,18.917,0,0,0-2.434,2.787,17.271,17.271,0,0,0-1.178,1.994,12.528,12.528,0,0,0-1.079,3.5,13.377,13.377,0,0,0,.033,4.3,13.675,13.675,0,0,0,3.745,7.282,12.328,12.328,0,0,0,2.709,2.037,13.273,13.273,0,0,0,12.6.286,10.631,10.631,0,0,0,2.534-1.7c1.861-1.8,3.69-3.624,5.518-5.452a2.6,2.6,0,0,0,.573-.727,3.407,3.407,0,0,0,.1-2.875,3.266,3.266,0,0,0-5.442-.925q-2.147,2.164-4.329,4.329c-.286.275-.594.528-.9.782a6.178,6.178,0,0,1-3.535,1.4,6.756,6.756,0,0,1-3.932-.936,6.26,6.26,0,0,1-1.862-1.674,6.63,6.63,0,0,1,.628-8.746C1482.922,507.76,1485.951,504.753,1488.969,501.724Z" transform="translate(-1471.32 -476.5)"/></g></g></g></svg>